# xmcd
#
# Track frame offsets:
#	150
#	13603
#	26317
#	39350
#	52414
#	66703
#	80634
#	94570
#	105706
#	119280
#	131659
#	145083
#	158837
#	170495
#	184516
#	197483
#	209953
#	223086
#	235474
#	248456
#	261687
#	274578
#	289286
#	301346
#	313893
#	326654
#	339413
#
# Disc length: 4730 seconds
#
# Revision: 2
# Processed by: cddbd v1.5.2PL0 Copyright (c) Steve Scherf et al.
# Submitted via: audiograbber 1.83.01
#
DISCID=a112781b
DTITLE=Various Artist - Country and Western Hit Parade 1945
DYEAR=2008
DGENRE=Country
TTITLE0=Bob Wills and His Texas Playboys - Smoke On The Water
TTITLE1=Gene Autry - At Mail Call Today
TTITLE2=Spade Cooley and His Orchestra - Shame On You
TTITLE3=Phil Harris and Orchestra - That's What I Like About The South
TTITLE4=Jenny Lou Carson - Jealous Heart
TTITLE5=Dick Thomas - Sioux City Sue
TTITLE6=Ernest Tubb - Tomorrow Never Comes
TTITLE7=Jimmie Davis - There's A New Moon Over My Shoulder
TTITLE8=Lulu Belle and Scotty Wiseman - Have I Told You Lately That I Love You
TTITLE9=Ted Daffan - Headin' Down The Wrong Highway
TTITLE10=Jack Guthrie and His Oklahomans - Oklahoma Hills
TTITLE11='Porky' Freeman Trio (vocal by Merle Travis) - Boogie Woogie Boy
TTITLE12=Gene Autry - Don't Fence Me In
TTITLE13=Eddy Arnold and His Tennessee Plowboys - The Cattle Call
TTITLE14=Al Dexter and His Troopers - I'm Losing My Mind Over You
TTITLE15=Floyd Tillman and His Favorite Playboys - Each Night At Nine
TTITLE16=Red Foley - Hang Your Head In Shame
TTITLE17=Tex Ritter and His Texans - You Two Timed Me One Time Too Often
TTITLE18=Merle Travis - That's All
TTITLE19=Wesley Tuttle and His Texas Stars - With Tears In My Eyes
TTITLE20=Bob Wills and His Texas Playboys - Stars And Stripes On Iwo Jima
TTITLE21=Ernest Tubb - It's Been So Long Darling
TTITLE22=Jerry Irby - Nails In My Coffin
TTITLE23=Jimmy Walker acc. by Paul Westmoreland and His Pecos River Boys - Deto
TTITLE23=ur
TTITLE24=Roy Acuff and His Smoky Mountain Boys - We Live In Two Diff'rent World
TTITLE24=s
TTITLE25=Hank Snow (The Singing Ranger) - Blue Ranger
TTITLE26=The Rambler Trio feat. Arthur Smith - Guitar Boogie
EXTD=
EXTT0=
EXTT1=
EXTT2=
EXTT3=
EXTT4=
EXTT5=
EXTT6=
EXTT7=
EXTT8=
EXTT9=
EXTT10=
EXTT11=
EXTT12=
EXTT13=
EXTT14=
EXTT15=
EXTT16=
EXTT17=
EXTT18=
EXTT19=
EXTT20=
EXTT21=
EXTT22=
EXTT23=
EXTT24=
EXTT25=
EXTT26=
PLAYORDER=
